<?xml version="1.0" encoding="utf-8" standalone="no"?>
<!DOCTYPE svg PUBLIC "-//W3C//DTD SVG 1.1//EN"
  "http://www.w3.org/Graphics/SVG/1.1/DTD/svg11.dtd">
<svg xmlns:xlink="http://www.w3.org/1999/xlink" width="468pt" height="432pt" viewBox="0 0 468 432" xmlns="http://www.w3.org/2000/svg" version="1.1">
 <metadata>
  <rdf:RDF xmlns:dc="http://purl.org/dc/elements/1.1/" xmlns:cc="http://creativecommons.org/ns#" xmlns:rdf="http://www.w3.org/1999/02/22-rdf-syntax-ns#">
   <cc:Work>
    <dc:type rdf:resource="http://purl.org/dc/dcmitype/StillImage"/>
    <dc:format>image/svg+xml</dc:format>
    <dc:creator>
     <cc:Agent>
      <dc:title>Matplotlib v3.11.2, https://matplotlib.org/</dc:title>
     </cc:Agent>
    </dc:creator>
   </cc:Work>
  </rdf:RDF>
 </metadata>
 <defs>
  <style type="text/css">*{stroke-linejoin: round; stroke-linecap: butt}</style>
 </defs>
 <g id="figure_1">
  <g id="patch_1">
   <path d="M 0 432 
L 468 432 
L 468 0 
L 0 0 
z
" style="fill: #ffffff"/>
  </g>
  <g id="axes_1">
   <g id="patch_2">
    <path d="M 19.08 109.8 
L 105.48 109.8 
Q 108.36 109.8 108.36 106.92 
L 108.36 80.28 
Q 108.36 77.4 105.48 77.4 
L 19.08 77.4 
Q 16.2 77.4 16.2 80.28 
L 16.2 106.92 
Q 16.2 109.8 19.08 109.8 
z
" clip-path="url(#pa2a7faacc6)" style="fill: #eeeaf4; stroke: #8877a8; stroke-linejoin: miter"/>
   </g>
   <g id="patch_3">
    <path d="M 352.44 109.8 
L 438.84 109.8 
Q 441.72 109.8 441.72 106.92 
L 441.72 80.28 
Q 441.72 77.4 438.84 77.4 
L 352.44 77.4 
Q 349.56 77.4 349.56 80.28 
L 349.56 106.92 
Q 349.56 109.8 352.44 109.8 
z
" clip-path="url(#pa2a7faacc6)" style="fill: #eeeaf4; stroke: #8877a8; stroke-linejoin: miter"/>
   </g>
   <g id="patch_4">
    <path d="M 176.76 109.8 
L 288.36 109.8 
Q 291.24 109.8 291.24 106.92 
L 291.24 80.28 
Q 291.24 77.4 288.36 77.4 
L 176.76 77.4 
Q 173.88 77.4 173.88 80.28 
L 173.88 106.92 
Q 173.88 109.8 176.76 109.8 
z
" clip-path="url(#pa2a7faacc6)" style="fill: #ffffff; stroke: #c9874d; stroke-linejoin: miter"/>
   </g>
   <g id="patch_5">
    <path d="M 111.439556 93.6 
Q 140.758604 93.6 168.959617 93.6 
" clip-path="url(#pa2a7faacc6)" style="fill: none; stroke: #c9874d; stroke-linecap: round"/>
    <path d="M 164.959617 91.6 
L 168.959617 93.6 
L 164.959617 95.6 
z
" clip-path="url(#pa2a7faacc6)" style="fill: #c9874d; stroke: #c9874d; stroke-linecap: round"/>
   </g>
   <g id="patch_6">
    <path d="M 295.039819 93.6 
Q 320.760189 93.6 345.362526 93.6 
" clip-path="url(#pa2a7faacc6)" style="fill: none; stroke: #c9874d; stroke-linecap: round"/>
    <path d="M 341.362526 91.6 
L 345.362526 93.6 
L 341.362526 95.6 
z
" clip-path="url(#pa2a7faacc6)" style="fill: #c9874d; stroke: #c9874d; stroke-linecap: round"/>
   </g>
   <g id="patch_7">
    <path d="M 19.08 232.2 
L 105.48 232.2 
Q 108.36 232.2 108.36 229.32 
L 108.36 202.68 
Q 108.36 199.8 105.48 199.8 
L 19.08 199.8 
Q 16.2 199.8 16.2 202.68 
L 16.2 229.32 
Q 16.2 232.2 19.08 232.2 
z
" clip-path="url(#pa2a7faacc6)" style="fill: #eeeaf4; stroke: #8877a8; stroke-linejoin: miter"/>
   </g>
   <g id="patch_8">
    <path d="M 352.44 232.2 
L 438.84 232.2 
Q 441.72 232.2 441.72 229.32 
L 441.72 202.68 
Q 441.72 199.8 438.84 199.8 
L 352.44 199.8 
Q 349.56 199.8 349.56 202.68 
L 349.56 229.32 
Q 349.56 232.2 352.44 232.2 
z
" clip-path="url(#pa2a7faacc6)" style="fill: #eeeaf4; stroke: #8877a8; stroke-linejoin: miter"/>
   </g>
   <g id="patch_9">
    <path d="M 111.442456 216 
Q 228.961154 216 345.361817 216 
" clip-path="url(#pa2a7faacc6)" style="fill: none; stroke: #2d918a; stroke-linecap: round"/>
    <path d="M 341.361817 214 
L 345.361817 216 
L 341.361817 218 
z
" clip-path="url(#pa2a7faacc6)" style="fill: #2d918a; stroke: #2d918a; stroke-linecap: round"/>
   </g>
   <g id="patch_10">
    <path d="M 19.08 354.6 
L 105.48 354.6 
Q 108.36 354.6 108.36 351.72 
L 108.36 325.08 
Q 108.36 322.2 105.48 322.2 
L 19.08 322.2 
Q 16.2 322.2 16.2 325.08 
L 16.2 351.72 
Q 16.2 354.6 19.08 354.6 
z
" clip-path="url(#pa2a7faacc6)" style="fill: #eeeaf4; stroke: #8877a8; stroke-linejoin: miter"/>
   </g>
   <g id="patch_11">
    <path d="M 352.44 354.6 
L 438.84 354.6 
Q 441.72 354.6 441.72 351.72 
L 441.72 325.08 
Q 441.72 322.2 438.84 322.2 
L 352.44 322.2 
Q 349.56 322.2 349.56 325.08 
L 349.56 351.72 
Q 349.56 354.6 352.44 354.6 
z
" clip-path="url(#pa2a7faacc6)" style="fill: #eeeaf4; stroke: #8877a8; stroke-linejoin: miter"/>
   </g>
   <g id="patch_12">
    <path d="M 111.442456 338.4 
Q 228.961154 338.4 345.361817 338.4 
" clip-path="url(#pa2a7faacc6)" style="fill: none; stroke: #2d918a; stroke-linecap: round"/>
    <path d="M 341.361817 336.4 
L 345.361817 338.4 
L 341.361817 340.4 
z
" clip-path="url(#pa2a7faacc6)" style="fill: #2d918a; stroke: #2d918a; stroke-linecap: round"/>
   </g>
   <g id="text_1">
    <text style="font-size: 12px; font-family: 'Times New Roman', 'SimSun', 'DejaVu Serif'; text-anchor: start; fill: #243244" x="14.4" y="19.466953" transform="rotate(-0 14.4 19.466953)">同一真实片段，逐问增加机器状态（语义示意）</text>
   </g>
   <g id="text_2">
    <text style="font-size: 12px; font-family: 'Times New Roman', 'SimSun', 'DejaVu Serif'; text-anchor: start; fill: #243244" x="14.4" y="59.066953" transform="rotate(-0 14.4 59.066953)">P1 · Task 边界独立编译</text>
   </g>
   <g id="text_3">
    <text style="font-size: 12px; font-family: 'Times New Roman', 'SimSun', 'DejaVu Serif'; text-anchor: middle; fill: #243244" x="62.28" y="97.580625" transform="rotate(-0 62.28 97.580625)">ADD 720</text>
   </g>
   <g id="text_4">
    <text style="font-size: 12px; font-family: 'Times New Roman', 'SimSun', 'DejaVu Serif'; text-anchor: middle; fill: #243244" x="395.64" y="97.580625" transform="rotate(-0 395.64 97.580625)">ADD 724</text>
   </g>
   <g id="text_5">
    <text style="font-size: 12px; font-family: 'Times New Roman', 'SimSun', 'DejaVu Serif'; text-anchor: middle; fill: #243244" x="232.56" y="97.675312" transform="rotate(-0 232.56 97.675312)">DDR / COPY</text>
   </g>
   <g id="text_6">
    <text style="font-size: 12px; font-family: 'Times New Roman', 'SimSun', 'DejaVu Serif'; text-anchor: start; fill: #243244" x="18" y="134.666953" transform="rotate(-0 18 134.666953)">同核跨 Task 仍经 COPY 边界</text>
   </g>
   <g id="text_7">
    <text style="font-size: 12px; font-family: 'Times New Roman', 'SimSun', 'DejaVu Serif'; text-anchor: start; fill: #416a93" x="18" y="155.546953" transform="rotate(-0 18 155.546953)">核0：sg0 → sg5</text>
   </g>
   <g id="text_8">
    <text style="font-size: 12px; font-family: 'Times New Roman', 'SimSun', 'DejaVu Serif'; text-anchor: start; fill: #243244" x="14.4" y="181.466953" transform="rotate(-0 14.4 181.466953)">P2 · 同核 Task 合并</text>
   </g>
   <g id="text_9">
    <text style="font-size: 12px; font-family: 'Times New Roman', 'SimSun', 'DejaVu Serif'; text-anchor: middle; fill: #243244" x="62.28" y="219.980625" transform="rotate(-0 62.28 219.980625)">ADD 720</text>
   </g>
   <g id="text_10">
    <text style="font-size: 12px; font-family: 'Times New Roman', 'SimSun', 'DejaVu Serif'; text-anchor: middle; fill: #243244" x="395.64" y="219.980625" transform="rotate(-0 395.64 219.980625)">ADD 724</text>
   </g>
   <g id="text_11">
    <text style="font-size: 12px; font-family: 'Times New Roman', 'SimSun', 'DejaVu Serif'; text-anchor: middle; fill: #243244" x="232.56" y="207.386953" transform="rotate(-0 232.56 207.386953)">t721 · 2 B · 核内驻留</text>
   </g>
   <g id="text_12">
    <text style="font-size: 12px; font-family: 'Times New Roman', 'SimSun', 'DejaVu Serif'; text-anchor: start; fill: #243244" x="18" y="257.066953" transform="rotate(-0 18 257.066953)">t721 可留在核内；跨核 t723 仍需传输</text>
   </g>
   <g id="text_13">
    <text style="font-size: 12px; font-family: 'Times New Roman', 'SimSun', 'DejaVu Serif'; text-anchor: start; fill: #416a93" x="18" y="277.946953" transform="rotate(-0 18 277.946953)">核0：合并 Task</text>
   </g>
   <g id="text_14">
    <text style="font-size: 12px; font-family: 'Times New Roman', 'SimSun', 'DejaVu Serif'; text-anchor: start; fill: #243244" x="14.4" y="303.866953" transform="rotate(-0 14.4 303.866953)">P3 · 只读 Cache</text>
   </g>
   <g id="text_15">
    <text style="font-size: 12px; font-family: 'Times New Roman', 'SimSun', 'DejaVu Serif'; text-anchor: middle; fill: #243244" x="62.28" y="342.380625" transform="rotate(-0 62.28 342.380625)">ADD 720</text>
   </g>
   <g id="text_16">
    <text style="font-size: 12px; font-family: 'Times New Roman', 'SimSun', 'DejaVu Serif'; text-anchor: middle; fill: #243244" x="395.64" y="342.380625" transform="rotate(-0 395.64 342.380625)">ADD 724</text>
   </g>
   <g id="text_17">
    <text style="font-size: 12px; font-family: 'Times New Roman', 'SimSun', 'DejaVu Serif'; text-anchor: middle; fill: #243244" x="232.56" y="329.786953" transform="rotate(-0 232.56 329.786953)">t721 · 2 B · 核内驻留</text>
   </g>
   <g id="text_18">
    <text style="font-size: 12px; font-family: 'Times New Roman', 'SimSun', 'DejaVu Serif'; text-anchor: start; fill: #243244" x="18" y="379.466953" transform="rotate(-0 18 379.466953)">保留 P2；DDR COPY_IN 再查共享 Cache</text>
   </g>
   <g id="text_19">
    <text style="font-size: 12px; font-family: 'Times New Roman', 'SimSun', 'DejaVu Serif'; text-anchor: start; fill: #416a93" x="18" y="400.346953" transform="rotate(-0 18 400.346953)">核0：合并 Task + Cache</text>
   </g>
  </g>
 </g>
 <defs>
  <clipPath id="pa2a7faacc6">
   <rect x="0" y="0" width="468" height="432"/>
  </clipPath>
 </defs>
</svg>
