<?xml version="1.0" encoding="utf-8" standalone="no"?>
<!DOCTYPE svg PUBLIC "-//W3C//DTD SVG 1.1//EN"
  "http://www.w3.org/Graphics/SVG/1.1/DTD/svg11.dtd">
<svg xmlns:xlink="http://www.w3.org/1999/xlink" width="468pt" height="309.6pt" viewBox="0 0 468 309.6" xmlns="http://www.w3.org/2000/svg" version="1.1">
 <metadata>
  <rdf:RDF xmlns:dc="http://purl.org/dc/elements/1.1/" xmlns:cc="http://creativecommons.org/ns#" xmlns:rdf="http://www.w3.org/1999/02/22-rdf-syntax-ns#">
   <cc:Work>
    <dc:type rdf:resource="http://purl.org/dc/dcmitype/StillImage"/>
    <dc:format>image/svg+xml</dc:format>
    <dc:creator>
     <cc:Agent>
      <dc:title>Matplotlib v3.11.2, https://matplotlib.org/</dc:title>
     </cc:Agent>
    </dc:creator>
   </cc:Work>
  </rdf:RDF>
 </metadata>
 <defs>
  <style type="text/css">*{stroke-linejoin: round; stroke-linecap: butt}</style>
 </defs>
 <g id="figure_1">
  <g id="patch_1">
   <path d="M 0 309.6 
L 468 309.6 
L 468 0 
L 0 0 
z
" style="fill: #ffffff"/>
  </g>
  <g id="axes_1">
   <g id="patch_2">
    <path d="M 26.28 96.84 
L 85.32 96.84 
Q 88.2 96.84 88.2 93.96 
L 88.2 67.32 
Q 88.2 64.44 85.32 64.44 
L 26.28 64.44 
Q 23.4 64.44 23.4 67.32 
L 23.4 93.96 
Q 23.4 96.84 26.28 96.84 
z
" clip-path="url(#p6949b94a8e)" style="fill: #ffffff; stroke: #416a93; stroke-linejoin: miter"/>
   </g>
   <g id="patch_3">
    <path d="M 92.000391 80.64 
Q 118.8008 80.64 144.483176 80.64 
" clip-path="url(#p6949b94a8e)" style="fill: none; stroke: #a6adb5; stroke-linecap: round"/>
    <path d="M 140.483176 78.64 
L 144.483176 80.64 
L 140.483176 82.64 
z
" clip-path="url(#p6949b94a8e)" style="fill: #a6adb5; stroke: #a6adb5; stroke-linecap: round"/>
   </g>
   <g id="patch_4">
    <path d="M 152.28 96.84 
L 268.92 96.84 
Q 271.8 96.84 271.8 93.96 
L 271.8 67.32 
Q 271.8 64.44 268.92 64.44 
L 152.28 64.44 
Q 149.4 64.44 149.4 67.32 
L 149.4 93.96 
Q 149.4 96.84 152.28 96.84 
z
" clip-path="url(#p6949b94a8e)" style="fill: #ffffff; stroke: #a6adb5; stroke-linejoin: miter"/>
   </g>
   <g id="patch_5">
    <path d="M 275.60127 80.64 
Q 295.201093 80.64 313.682882 80.64 
" clip-path="url(#p6949b94a8e)" style="fill: none; stroke: #a6adb5; stroke-linecap: round"/>
    <path d="M 309.682882 78.64 
L 313.682882 80.64 
L 309.682882 82.64 
z
" clip-path="url(#p6949b94a8e)" style="fill: #a6adb5; stroke: #a6adb5; stroke-linecap: round"/>
   </g>
   <g id="patch_6">
    <path d="M 321.48 96.84 
L 436.68 96.84 
Q 439.56 96.84 439.56 93.96 
L 439.56 67.32 
Q 439.56 64.44 436.68 64.44 
L 321.48 64.44 
Q 318.6 64.44 318.6 67.32 
L 318.6 93.96 
Q 318.6 96.84 321.48 96.84 
z
" clip-path="url(#p6949b94a8e)" style="fill: #ffffff; stroke: #c9874d; stroke-linejoin: miter"/>
   </g>
   <g id="patch_7">
    <path d="M 26.28 162.36 
L 85.32 162.36 
Q 88.2 162.36 88.2 159.48 
L 88.2 132.84 
Q 88.2 129.96 85.32 129.96 
L 26.28 129.96 
Q 23.4 129.96 23.4 132.84 
L 23.4 159.48 
Q 23.4 162.36 26.28 162.36 
z
" clip-path="url(#p6949b94a8e)" style="fill: #ffffff; stroke: #416a93; stroke-linejoin: miter"/>
   </g>
   <g id="patch_8">
    <path d="M 92.000391 146.16 
Q 118.8008 146.16 144.483176 146.16 
" clip-path="url(#p6949b94a8e)" style="fill: none; stroke: #a6adb5; stroke-linecap: round"/>
    <path d="M 140.483176 144.16 
L 144.483176 146.16 
L 140.483176 148.16 
z
" clip-path="url(#p6949b94a8e)" style="fill: #a6adb5; stroke: #a6adb5; stroke-linecap: round"/>
   </g>
   <g id="patch_9">
    <path d="M 152.28 162.36 
L 268.92 162.36 
Q 271.8 162.36 271.8 159.48 
L 271.8 132.84 
Q 271.8 129.96 268.92 129.96 
L 152.28 129.96 
Q 149.4 129.96 149.4 132.84 
L 149.4 159.48 
Q 149.4 162.36 152.28 162.36 
z
" clip-path="url(#p6949b94a8e)" style="fill: #ffffff; stroke: #a6adb5; stroke-linejoin: miter"/>
   </g>
   <g id="patch_10">
    <path d="M 275.60127 146.16 
Q 295.201093 146.16 313.682882 146.16 
" clip-path="url(#p6949b94a8e)" style="fill: none; stroke: #a6adb5; stroke-linecap: round"/>
    <path d="M 309.682882 144.16 
L 313.682882 146.16 
L 309.682882 148.16 
z
" clip-path="url(#p6949b94a8e)" style="fill: #a6adb5; stroke: #a6adb5; stroke-linecap: round"/>
   </g>
   <g id="patch_11">
    <path d="M 321.48 162.36 
L 436.68 162.36 
Q 439.56 162.36 439.56 159.48 
L 439.56 132.84 
Q 439.56 129.96 436.68 129.96 
L 321.48 129.96 
Q 318.6 129.96 318.6 132.84 
L 318.6 159.48 
Q 318.6 162.36 321.48 162.36 
z
" clip-path="url(#p6949b94a8e)" style="fill: #ffffff; stroke: #c9874d; stroke-linejoin: miter"/>
   </g>
   <g id="patch_12">
    <path d="M 26.28 249.48 
L 146.52 249.48 
Q 149.4 249.48 149.4 246.6 
L 149.4 217.8 
Q 149.4 214.92 146.52 214.92 
L 26.28 214.92 
Q 23.4 214.92 23.4 217.8 
L 23.4 246.6 
Q 23.4 249.48 26.28 249.48 
z
" clip-path="url(#p6949b94a8e)" style="fill: #ffffff; stroke: #2d918a; stroke-linejoin: miter"/>
   </g>
   <g id="patch_13">
    <path d="M 174.6 249.48 
L 294.84 249.48 
Q 297.72 249.48 297.72 246.6 
L 297.72 217.8 
Q 297.72 214.92 294.84 214.92 
L 174.6 214.92 
Q 171.72 214.92 171.72 217.8 
L 171.72 246.6 
Q 171.72 249.48 174.6 249.48 
z
" clip-path="url(#p6949b94a8e)" style="fill: #ffffff; stroke: #2d918a; stroke-linejoin: miter"/>
   </g>
   <g id="patch_14">
    <path d="M 322.92 249.48 
L 443.16 249.48 
Q 446.04 249.48 446.04 246.6 
L 446.04 217.8 
Q 446.04 214.92 443.16 214.92 
L 322.92 214.92 
Q 320.04 214.92 320.04 217.8 
L 320.04 246.6 
Q 320.04 249.48 322.92 249.48 
z
" clip-path="url(#p6949b94a8e)" style="fill: #ffffff; stroke: #2d918a; stroke-linejoin: miter"/>
   </g>
   <g id="text_1">
    <text style="font-size: 12px; font-family: 'Times New Roman', 'SimSun', 'DejaVu Serif'; text-anchor: start; fill: #243244" x="14.4" y="21.626953" transform="rotate(-0 14.4 21.626953)">同一当前分数，不能保证同一未来（定义示意）</text>
   </g>
   <g id="text_2">
    <text style="font-size: 12px; font-family: 'Times New Roman', 'SimSun', 'DejaVu Serif'; text-anchor: middle; fill: #243244" x="55.8" y="84.613125" transform="rotate(-0 55.8 84.613125)">P</text>
   </g>
   <g id="text_3">
    <text style="font-size: 12px; font-family: 'Times New Roman', 'SimSun', 'DejaVu Serif'; text-anchor: middle; fill: #243244" x="210.6" y="84.929062" transform="rotate(-0 210.6 84.929062)">当前观测 = m</text>
   </g>
   <g id="text_4">
    <text style="font-size: 12px; font-family: 'Times New Roman', 'SimSun', 'DejaVu Serif'; text-anchor: middle; fill: #243244" x="295.2" y="68.403516" transform="rotate(-0 295.2 68.403516)">动作 a</text>
   </g>
   <g id="text_5">
    <text style="font-size: 12px; font-family: 'Times New Roman', 'SimSun', 'DejaVu Serif'; text-anchor: middle; fill: #243244" x="379.08" y="84.929062" transform="rotate(-0 379.08 84.929062)">可能分离</text>
   </g>
   <g id="text_6">
    <text style="font-size: 12px; font-family: 'Times New Roman', 'SimSun', 'DejaVu Serif'; text-anchor: middle; fill: #243244" x="55.8" y="149.048438" transform="rotate(-0 55.8 149.048438)">Q</text>
   </g>
   <g id="text_7">
    <text style="font-size: 12px; font-family: 'Times New Roman', 'SimSun', 'DejaVu Serif'; text-anchor: middle; fill: #243244" x="210.6" y="150.449062" transform="rotate(-0 210.6 150.449062)">当前观测 = m</text>
   </g>
   <g id="text_8">
    <text style="font-size: 12px; font-family: 'Times New Roman', 'SimSun', 'DejaVu Serif'; text-anchor: middle; fill: #243244" x="295.2" y="133.923516" transform="rotate(-0 295.2 133.923516)">动作 a</text>
   </g>
   <g id="text_9">
    <text style="font-size: 12px; font-family: 'Times New Roman', 'SimSun', 'DejaVu Serif'; text-anchor: middle; fill: #243244" x="379.08" y="150.449062" transform="rotate(-0 379.08 150.449062)">可能分离</text>
   </g>
   <g id="text_10">
    <text style="font-size: 12px; font-family: 'Times New Roman', 'SimSun', 'DejaVu Serif'; text-anchor: start; fill: #243244" x="25.2" y="194.426953" transform="rotate(-0 25.2 194.426953)">未来充分表示必须同时保持：</text>
   </g>
   <g id="text_11">
    <text style="font-size: 12px; font-family: 'Times New Roman', 'SimSun', 'DejaVu Serif'; text-anchor: middle; fill: #243244" x="86.4" y="236.371875" transform="rotate(-0 86.4 236.371875)">能否执行 a</text>
   </g>
   <g id="text_12">
    <text style="font-size: 12px; font-family: 'Times New Roman', 'SimSun', 'DejaVu Serif'; text-anchor: middle; fill: #243244" x="234.72" y="236.465625" transform="rotate(-0 234.72 236.465625)">如何更新 S</text>
   </g>
   <g id="text_13">
    <text style="font-size: 12px; font-family: 'Times New Roman', 'SimSun', 'DejaVu Serif'; text-anchor: middle; fill: #243244" x="383.04" y="236.489062" transform="rotate(-0 383.04 236.489062)">当前观测 Φ</text>
   </g>
   <g id="text_14">
    <text style="font-size: 12px; font-family: 'Times New Roman', 'SimSun', 'DejaVu Serif'; text-anchor: start; fill: #243244" x="25.2" y="290.210391" transform="rotate(-0 25.2 290.210391)">对全部有限动作词归纳；不把“分数相等”当作状态相等。</text>
   </g>
  </g>
 </g>
 <defs>
  <clipPath id="p6949b94a8e">
   <rect x="0" y="0" width="468" height="309.6"/>
  </clipPath>
 </defs>
</svg>
